C:\My Captures\DataSMARTClinic\0056~004 ID\0056~aa~STRATO3\Standing_ID_04_STRATO.mot
version=1
nRows=53
nColumns=10
inDegrees=yes

BTS OpenSim export

endheader
time	[P0]_force_vx	[P0]_force_vy	[P0]_force_vz	[P0]_force_px	[P0]_force_py	[P0]_force_pz	[P0]_torque_x	[P0]_torque_y	[P0]_torque_z
2.588000	2.90524936	571.22845459	13.39858437	0.85359204	0.00180589	0.19821788	0.00567963	-1.03153574	-0.00039698
2.592000	2.90523863	571.23040771	13.39858532	0.85383344	0.00180722	0.19821881	0.00409822	-0.74431932	-0.00028644
2.596000	2.36944938	570.70129395	13.93561554	0.85352868	0.00180553	0.19823122	0.00554741	-1.00752234	-0.00038774
2.600000	2.36944938	570.70129395	13.93561554	0.85352868	0.00180553	0.19823122	0.00554741	-1.00752234	-0.00038774
2.604000	3.44321561	571.22937012	13.39931488	0.85361195	0.00180594	0.19836889	0.00457670	-0.83122241	-0.00031989
2.608000	3.44463611	570.97137451	13.39921570	0.85371363	0.00180659	0.19813894	0.00612491	-1.11240852	-0.00042810
2.612000	2.37089062	570.43951416	13.93551445	0.85362959	0.00180606	0.19830215	0.00554194	-1.00652981	-0.00038735
2.616000	2.90668082	570.96844482	13.39848423	0.85369241	0.00180647	0.19813891	0.00566971	-1.02973545	-0.00039628
2.620000	2.37017918	570.70153809	13.39765167	0.85352874	0.00180554	0.19821002	0.00619854	-1.12578166	-0.00043325
2.624000	2.90595102	570.96826172	13.93644810	0.85369235	0.00180646	0.19816010	0.00501816	-0.91139954	-0.00035074
2.628000	2.90668082	570.96844482	13.39848423	0.85369241	0.00180647	0.19813891	0.00507732	-0.92214435	-0.00035488
2.632000	2.36511230	571.48901367	13.93591881	0.85371143	0.00180656	0.19816916	0.00553173	-1.00467396	-0.00038664
2.636000	2.90523982	571.23016357	13.39858532	0.85359156	0.00180594	0.19806811	0.00567467	-1.03063571	-0.00039663
2.640000	1.82991993	570.96203613	13.93498611	0.85340798	0.00180496	0.19800927	0.00509333	-0.92505312	-0.00035600
2.644000	2.90523982	571.23016357	13.39858532	0.85359156	0.00180594	0.19806811	0.00567467	-1.03063571	-0.00039663
2.648000	3.44101191	571.49688721	13.93738079	0.85375506	0.00180686	0.19801831	0.00546508	-0.99256921	-0.00038198
2.652000	2.90305662	571.49389648	13.93665028	0.85373390	0.00180675	0.19801828	0.00598183	-1.08642173	-0.00041810
2.656000	2.36223960	572.01074219	13.93611908	0.85351050	0.00180546	0.19817731	0.00554714	-1.00747430	-0.00038772
2.660000	2.90019488	572.01367188	13.93685055	0.85353172	0.00180557	0.19817734	0.00600240	-1.09015727	-0.00041954
2.664000	2.89874148	572.27764893	13.93695164	0.85367382	0.00180638	0.19810638	0.00501777	-0.91132873	-0.00035072
2.668000	2.36222863	572.01275635	13.93612003	0.85351181	0.00180552	0.19802654	0.00554247	-1.00662589	-0.00038739
2.672000	3.43742633	572.28082275	13.39971924	0.85369503	0.00180651	0.19808525	0.00612431	-1.11229980	-0.00042806
2.676000	2.36221790	572.01470947	13.93612099	0.85375285	0.00180685	0.19802746	0.00552430	-1.00332451	-0.00038612
2.680000	2.36221790	572.01470947	13.93612099	0.85375285	0.00180685	0.19802746	0.00552430	-1.00332451	-0.00038612
2.684000	2.36293030	571.75250244	14.47398376	0.85361195	0.00180609	0.19796875	0.00644506	-1.17055321	-0.00045048
2.688000	2.90304685	571.49566650	13.93665123	0.85373342	0.00180680	0.19786859	0.00597688	-1.08552253	-0.00041775
2.692000	2.36509180	571.49273682	13.93591976	0.85371220	0.00180668	0.19786856	0.00552254	-1.00300610	-0.00038600
2.696000	2.36366010	571.75274658	13.93601990	0.85361195	0.00180610	0.19794758	0.00553251	-1.00481677	-0.00038669
2.700000	2.36582160	571.49291992	13.39795685	0.85371226	0.00180669	0.19784737	0.00617422	-1.12136400	-0.00043155
2.704000	1.82918072	570.96356201	14.47294998	0.85340750	0.00180500	0.19788064	0.00600235	-1.09014964	-0.00041953
2.708000	2.36796594	570.97070313	13.93571949	0.85367155	0.00180652	0.19770935	0.00552079	-1.00268710	-0.00038588
2.712000	2.36652327	571.23272705	13.93581963	0.85381258	0.00180727	0.19778946	0.00551256	-1.00119376	-0.00038530
2.716000	2.36652327	571.23272705	13.93581963	0.85381258	0.00180727	0.19778946	0.00551256	-1.00119376	-0.00038530
2.720000	3.44530797	570.71661377	13.93708038	0.85381436	0.00180734	0.19763017	0.00544652	-0.98919886	-0.00038068
2.724000	3.44387650	570.97662354	13.93718052	0.85371387	0.00180676	0.19770941	0.00545698	-0.99109864	-0.00038142
2.728000	2.36650157	571.23669434	13.93582153	0.85405529	0.00180866	0.19763941	0.00548968	-0.99703819	-0.00038370
2.732000	3.44385290	570.98089600	13.93718243	0.85419869	0.00180942	0.19771007	0.00542039	-0.98445326	-0.00037886
2.736000	2.37083864	570.44897461	13.93551826	0.85387290	0.00180763	0.19770077	0.00550532	-0.99987721	-0.00038479
2.740000	2.90879369	570.45196533	13.93624878	0.85389411	0.00180775	0.19770080	0.00498762	-0.90585327	-0.00034861
2.744000	2.36938524	570.71295166	13.93562031	0.85401529	0.00180845	0.19762984	0.00549241	-0.99753338	-0.00038389
2.748000	2.36867857	570.70855713	14.47358131	0.85353029	0.00180577	0.19765039	0.00644180	-1.16996264	-0.00045025
2.752000	2.36796594	570.97070313	13.93571949	0.85367155	0.00180652	0.19770935	0.00552079	-1.00268710	-0.00038588
2.756000	2.36794376	570.97473145	13.93572044	0.85391426	0.00180792	0.19755924	0.00549790	-0.99852961	-0.00038428
2.760000	2.36938524	570.71295166	13.93562031	0.85401529	0.00180845	0.19762984	0.00549241	-0.99753338	-0.00038389
2.764000	2.90663862	570.97613525	13.39848709	0.85393596	0.00180799	0.19768791	0.00563701	-1.02379644	-0.00039400
2.768000	2.90734172	570.71569824	13.93635082	0.85379446	0.00180729	0.19747902	0.00498776	-0.90587944	-0.00034862
2.772000	2.36864567	570.71453857	14.47358418	0.85401475	0.00180849	0.19750115	0.00639925	-1.16223395	-0.00044728
2.776000	2.36937547	570.71472168	13.93562031	0.85401481	0.00180850	0.19747993	0.00548790	-0.99671376	-0.00038358
2.780000	2.36937547	570.71472168	13.93562031	0.85401481	0.00180850	0.19747993	0.00548790	-0.99671376	-0.00038358
2.784000	2.36936474	570.71667480	13.93562126	0.85401607	0.00180857	0.19732884	0.00548322	-0.99586344	-0.00038325
2.788000	2.91165829	569.93170166	13.93604851	0.85385305	0.00180764	0.19739105	0.00498041	-0.90454316	-0.00034811
2.792000	2.36792207	570.97869873	13.93572235	0.85415709	0.00180931	0.19740914	0.00547501	-0.99437255	-0.00038268
2.796000	2.37224936	570.19274902	13.93542004	0.85397434	0.00180834	0.19732016	0.00548611	-0.99638849	-0.00038345
